{"title":"Survivor.2015.720p.WEB-DL.DD5.1.H264-RARBG","uid":11972808,"size":3267101801,"categoryP":"video","categoryS":"hd___movies","magnet":"?xt=urn:btih:2902c9821e674e8bdb23501da94e9506f03ba624&amp;dn=Survivor.2015.720p.WEB-DL.DD5.1.H264-RARBG&amp;tr=udp%3A%2F%2Ftracker.openbittorrent.com%3A80&amp;tr=udp%3A%2F%2Fopen.demonii.com%3A1337&amp;tr=udp%3A%2F%2Ftracker.coppersurfer.tk%3A6969&amp;tr=udp%3A%2F%2Fexodus.desync.com%3A6969","seeders":11,"leechers":13,"uploader":"vickey1992","files":5,"time":1432899393,"description":"Video\nID : 1\nFormat : AVC\nFormat/Info : Advanced Video Codec\nFormat profile : &lt;a class=&quot;__cf_email__&quot; href=&quot;/cdn-cgi/l/email-protection&quot; data-cfemail=&quot;084569616648443b2639&quot;&gt;[email&amp;#160;protected]&lt;/a&gt;&lt;script data-cfhash='f9e31' type=&quot;text/javascript&quot;&gt;\n/* &lt;![CDATA[ */!function(){try{var t=&quot;currentScript&quot;in document?document.currentScript:function(){for(var t=document.getElementsByTagName(&quot;script&quot;),e=t.length;e--;)if(t[e].getAttribute(&quot;data-cfhash&quot;))return t[e]}();if(t&amp;&amp;t.previousSibling){var e,r,n,i,c=t.previousSibling,a=c.getAttribute(&quot;data-cfemail&quot;);if(a){for(e=&quot;&quot;,r=parseInt(a.substr(0,2),16),n=2;a.length-n;n+=2)i=parseInt(a.substr(n,2),16)^r,e+=String.fromCharCode(i);e=document.createTextNode(e),c.parentNode.replaceChild(e,c)}t.parentNode.removeChild(t);}}catch(u){}}()/* ]]&gt; */&lt;/script&gt;\nFormat settings, CABAC : No\nFormat settings, ReFrames : 2 frames\nCodec ID : V_MPEG4/ISO/AVC\nDuration : 1h 36mn\nBit rate : 4 044 Kbps\nWidth : 1 280 pixels\nHeight : 534 pixels\nDisplay aspect ratio : 2.40:1\nFrame rate mode : Constant\nFrame rate : 23.976 fps\nColor space : YUV\nChroma subsampling : 4:2:0\nBit depth : 8 bits\nScan type : Progressive\nBits/(Pixel*Frame) : 0.247\nStream size : 2.72 GiB (90%)\nTitle : Survivor.2015.720p.WEB-DL.DD5.1.H264-RARBG\nLanguage : English\nDefault : Yes\nForced : No\nColor primaries : BT.709\nTransfer characteristics : BT.709\nMatrix coefficients : BT.709\nColor range : Limited\n\nAudio\nID : 2\nFormat : AC-3\nFormat/Info : Audio Coding 3\nMode extension : CM (complete main)\nFormat settings, Endianness : Big\nCodec ID : A_AC3\nDuration : 1h 36mn\nBit rate mode : Constant\nBit rate : 384 Kbps\nChannel(s) : 6 channels\nChannel positions : Front: L C R, Side: L R, LFE\nSampling rate : 48.0 KHz\nBit depth : 16 bits\nCompression mode : Lossy\nStream size : 265 MiB (8%)\nTitle : Survivor.2015.720p.WEB-DL.DD5.1.H264-RARBG\nLanguage : English\nDefault : Yes\nForced : No\n\nText\nID : 3\nFormat : UTF-8\nCodec ID : S_TEXT/UTF8\nCodec ID/Info : UTF-8 Plain Text\nLanguage : English\nDefault : Yes\nForced : No\n\nMenu\n00:00:00.000 : en:1\n00:03:33.000 : en:2\n00:11:46.000 : en:3\n00:17:49.000 : en:4\n00:23:19.000 : en:5\n00:29:52.000 : en:6\n00:36:33.000 : en:7\n00:42:02.000 : en:8\n00:49:28.000 : en:9\n00:54:29.000 : en:10\n01:00:21.000 : en:11\n01:05:57.000 : en:12\n01:11:46.000 : en:13\n01:17:56.000 : en:14\n01:22:49.000 : en:15\n01:26:09.000 : en:16","torrent":{"xt":"urn:btih:2902c9821e674e8bdb23501da94e9506f03ba624","amp;dn":"Survivor.2015.720p.WEB-DL.DD5.1.H264-RARBG","amp;tr":["udp%3A%2F%2Ftracker.openbittorrent.com%3A80","udp%3A%2F%2Fopen.demonii.com%3A1337","udp%3A%2F%2Ftracker.coppersurfer.tk%3A6969","udp%3A%2F%2Fexodus.desync.com%3A6969"],"infoHash":"2902c9821e674e8bdb23501da94e9506f03ba624","infoHashBuffer":{"type":"Buffer","data":[41,2,201,130,30,103,78,139,219,35,80,29,169,78,149,6,240,59,166,36]},"announce":[],"urlList":[]}}